<svg width="126" height="122" viewBox="0 0 126 122" fill="none" xmlns="http://www.w3.org/2000/svg">
<path d="M31.7625 106.25H45.15L43.3125 43.775L28.6125 49.025L31.7625 106.25Z" fill="#455A64"/>
<path d="M95.8125 35.375C103.061 35.375 108.937 29.4987 108.937 22.25C108.937 15.0013 103.061 9.125 95.8125 9.125C88.5638 9.125 82.6875 15.0013 82.6875 22.25C82.6875 29.4987 88.5638 35.375 95.8125 35.375Z" fill="#FFB74D"/>
<path d="M28.875 106.25H15.75L20.475 44.825L37.275 50.8625L28.875 106.25Z" fill="#607D8B"/>
<path d="M83.2125 37.7375C81.6375 32.4875 79.8 27.2375 76.65 22.5125C73.2375 18.3125 68.25 14.375 60.6375 17.2625C52.5 20.675 36.4875 26.7125 31.2375 29.075C25.2 31.9625 20.475 36.1625 20.475 44.5625C20.475 53.4875 31.7625 58.475 31.7625 58.475L70.35 42.4625L74.8125 54.275L88.725 54.5375C88.725 54.8 84.7875 42.9875 83.2125 37.7375Z" fill="#607D8B"/>
<path d="M99.4875 106.25H78.75C76.125 106.25 74.025 104.412 73.5 101.787L66.675 56.9H111.3L104.475 101.787C104.475 104.412 102.112 106.25 99.4875 106.25Z" fill="#B39DDB"/>
<path d="M110.25 59H68.25C66.675 59 65.625 57.95 65.625 56.375C65.625 54.8 66.675 53.75 68.25 53.75H110.25C111.825 53.75 112.875 54.8 112.875 56.375C112.875 57.95 111.825 59 110.25 59Z" fill="#7E57C2"/>
</svg>
